<svg id="svg" version="1.1" xmlns="http://www.w3.org/2000/svg" xmlns:xlink="http://www.w3.org/1999/xlink" width="400" height="300" viewBox="0, 0, 400,300"><g id="svgg"><path id="path0" d="M222.700 50.952 C 221.710 51.476,220.385 52.239,219.757 52.646 C 216.808 54.556,215.715 54.844,211.724 54.761 C 209.098 54.707,208.752 54.738,208.579 55.045 C 207.868 56.311,205.832 57.025,202.738 57.092 C 200.716 57.136,200.095 57.227,199.100 57.623 L 197.900 58.102 197.767 64.501 C 197.620 71.531,197.284 83.160,196.988 91.400 C 196.273 111.341,196.575 136.191,197.797 158.100 C 199.107 181.572,199.490 204.719,198.732 214.600 C 198.542 217.075,198.305 222.070,198.205 225.700 C 198.020 232.374,197.752 235.283,196.985 238.927 C 195.942 243.881,196.332 246.800,198.037 246.800 C 199.046 246.800,199.728 247.207,200.533 248.288 C 201.725 249.888,202.876 250.130,204.700 249.162 C 205.820 248.568,206.080 248.517,208.600 248.391 C 211.360 248.253,212.165 248.067,214.400 247.049 C 215.188 246.691,216.324 246.445,218.400 246.183 C 219.995 245.982,222.117 245.665,223.116 245.479 C 225.217 245.086,225.720 245.166,226.730 246.053 C 228.481 247.590,229.525 247.057,234.560 242.051 C 238.935 237.703,241.457 234.566,245.697 228.200 C 247.492 225.505,249.834 222.220,250.902 220.900 C 255.281 215.491,256.617 213.795,257.926 211.992 C 259.184 210.259,260.966 207.916,267.645 199.212 C 268.948 197.514,270.660 195.060,271.449 193.760 C 272.925 191.328,274.860 188.745,278.089 184.900 C 283.082 178.954,284.999 176.248,289.711 168.500 C 293.630 162.056,293.875 161.721,297.102 158.400 C 300.616 154.785,302.000 152.689,302.000 150.985 C 302.000 149.747,302.982 148.039,304.101 147.332 C 304.596 147.019,305.382 146.310,305.850 145.756 C 307.056 144.328,307.981 143.381,308.875 142.660 L 309.650 142.034 309.787 140.054 C 309.910 138.286,310.001 137.936,310.644 136.787 C 311.751 134.807,311.788 134.255,310.932 132.538 C 309.577 129.819,305.104 125.097,301.722 122.815 C 299.263 121.156,298.106 119.951,296.759 117.646 C 295.272 115.102,294.174 113.817,291.637 111.652 C 287.074 107.759,275.986 95.664,268.670 86.600 C 256.136 71.071,253.219 68.139,241.700 59.489 C 229.463 50.301,229.466 50.303,227.400 50.292 C 226.575 50.288,225.585 50.220,225.200 50.141 C 224.601 50.019,224.240 50.136,222.700 50.952 M131.687 51.162 C 129.751 52.385,126.759 58.198,125.324 63.526 C 123.433 70.543,121.945 73.211,116.162 79.959 C 114.468 81.935,113.947 82.721,112.817 85.000 C 112.082 86.485,109.900 90.310,107.970 93.500 C 100.951 105.101,97.068 112.218,94.497 118.200 C 93.953 119.465,93.211 120.950,92.848 121.500 C 92.485 122.050,92.143 122.725,92.089 123.000 C 91.785 124.549,91.475 125.105,90.514 125.830 C 89.178 126.838,89.015 127.201,89.007 129.205 C 89.002 130.413,88.909 131.040,88.690 131.354 C 88.308 131.899,89.633 132.875,91.066 133.103 C 93.460 133.484,95.413 135.044,96.087 137.112 C 96.681 138.936,97.412 140.076,98.375 140.685 C 99.522 141.408,100.315 142.467,101.408 144.731 L 102.388 146.763 105.844 149.651 C 111.847 154.668,115.406 157.939,126.138 168.300 C 131.105 173.095,134.637 176.306,138.702 179.722 C 143.802 184.007,143.819 186.243,138.836 197.600 C 137.610 200.394,133.010 209.365,131.810 211.300 C 131.333 212.070,130.651 213.375,130.295 214.200 C 129.231 216.664,126.675 222.054,124.683 226.033 C 122.405 230.585,121.475 232.794,120.299 236.446 L 119.396 239.251 120.148 240.090 C 120.562 240.551,121.050 241.208,121.233 241.551 C 121.537 242.118,121.969 242.447,124.530 244.057 C 124.986 244.344,125.619 244.966,125.936 245.439 C 126.616 246.454,128.185 246.715,129.961 246.110 C 131.251 245.671,131.257 245.673,132.568 247.000 C 133.856 248.304,134.378 248.454,136.028 247.996 C 137.004 247.724,137.668 247.995,138.837 249.141 C 140.269 250.545,142.046 250.122,146.723 247.265 C 147.616 246.719,149.019 245.970,149.841 245.600 L 151.336 244.928 151.988 242.914 C 152.715 240.672,153.577 238.579,155.385 234.665 C 156.055 233.216,156.958 230.966,157.393 229.665 C 158.092 227.572,158.262 227.250,158.867 226.862 C 159.793 226.271,160.357 225.512,160.606 224.524 C 161.108 222.534,162.112 219.948,163.114 218.059 C 164.661 215.146,166.253 211.408,166.888 209.200 C 167.724 206.296,168.861 204.115,169.919 203.387 C 171.572 202.250,172.317 200.847,173.014 197.560 C 173.643 194.591,174.244 193.146,177.338 187.165 C 178.541 184.839,178.432 181.801,177.063 179.458 C 176.609 178.681,176.567 178.385,176.516 175.658 C 176.391 168.890,174.249 164.356,170.772 163.498 C 170.450 163.419,169.824 162.847,169.172 162.037 C 167.357 159.782,163.209 155.796,160.603 153.800 C 154.084 148.808,150.930 146.155,146.119 141.621 C 144.809 140.386,142.514 138.373,141.019 137.147 C 139.523 135.921,136.860 133.458,135.100 131.674 C 132.789 129.331,131.395 128.096,130.081 127.230 C 126.744 125.031,126.676 124.762,128.511 121.000 C 130.586 116.747,132.493 113.642,141.367 100.071 C 143.028 97.530,144.370 95.215,144.998 93.804 C 145.653 92.334,146.771 90.425,148.259 88.234 C 151.098 84.054,151.675 83.092,153.293 79.859 C 154.433 77.580,154.797 77.052,156.171 75.675 C 160.635 71.207,162.304 61.806,159.689 55.862 C 159.278 54.928,159.156 54.811,158.466 54.694 C 158.045 54.622,156.765 54.302,155.621 53.982 C 152.862 53.209,150.819 53.181,149.410 53.895 C 147.122 55.054,143.667 54.494,137.069 51.893 C 134.228 50.773,132.643 50.558,131.687 51.162 M229.572 90.460 C 230.162 90.812,231.311 91.685,232.126 92.400 C 232.941 93.115,234.369 94.330,235.298 95.100 C 236.707 96.268,237.255 96.910,238.598 98.967 C 241.478 103.379,242.727 104.889,250.226 113.024 C 254.548 117.714,255.114 118.384,257.194 121.282 C 259.342 124.273,260.608 125.470,264.000 127.713 C 268.614 130.765,273.082 134.965,273.505 136.647 C 273.701 137.431,273.028 138.752,269.674 144.162 C 264.639 152.284,262.457 155.398,255.113 164.948 C 253.739 166.734,250.614 170.919,248.169 174.248 C 242.645 181.766,231.904 196.135,231.328 196.777 C 230.406 197.804,228.936 198.836,228.785 198.563 C 228.351 197.778,228.184 195.230,228.483 193.943 C 228.750 192.793,228.751 192.380,228.499 190.460 C 227.995 186.625,227.806 182.477,227.799 175.100 C 227.791 166.094,227.506 154.323,227.063 144.700 C 226.616 134.977,226.559 110.732,226.975 107.100 C 227.126 105.780,227.306 101.415,227.375 97.400 C 227.524 88.681,227.376 89.148,229.572 90.460 " stroke="none" fill="#fbfbfb" fill-rule="evenodd"></path><path id="path1" d="M0.000 150.000 L 0.000 300.000 200.000 300.000 L 400.000 300.000 400.000 150.000 L 400.000 0.000 200.000 0.000 L 0.000 0.000 0.000 150.000 M230.213 51.009 C 231.867 51.973,246.058 62.540,249.400 65.297 C 253.953 69.053,259.947 75.658,269.320 87.248 C 276.576 96.221,284.186 104.447,293.237 113.100 C 295.200 114.977,295.716 115.609,296.749 117.401 C 298.134 119.802,299.285 120.994,302.209 123.050 C 305.340 125.254,309.626 129.805,311.050 132.438 C 311.849 133.916,311.795 134.894,310.819 136.675 C 310.116 137.957,310.023 138.296,309.895 140.051 L 309.752 142.002 308.569 143.027 C 307.918 143.591,306.961 144.592,306.443 145.252 C 305.924 145.913,304.982 146.804,304.349 147.234 C 303.026 148.133,302.200 149.492,302.200 150.769 C 302.200 152.497,300.595 155.027,297.607 158.011 C 294.450 161.163,293.636 162.264,289.705 168.700 C 285.602 175.417,284.051 177.680,280.762 181.748 C 272.850 191.531,273.048 191.269,271.026 194.643 C 270.452 195.601,269.596 196.861,269.125 197.443 C 268.065 198.753,261.338 207.591,258.123 211.900 C 256.809 213.660,254.601 216.495,253.216 218.200 C 248.826 223.603,248.117 224.566,245.452 228.741 C 241.981 234.178,238.918 237.941,234.131 242.650 C 229.609 247.098,228.510 247.599,226.602 246.083 C 225.551 245.247,225.444 245.245,220.500 245.967 C 215.592 246.683,215.374 246.731,213.500 247.519 C 211.818 248.226,211.518 248.285,208.907 248.426 C 206.338 248.566,206.019 248.627,204.929 249.189 C 202.971 250.198,201.566 249.938,200.475 248.364 C 199.802 247.393,199.162 246.990,198.037 246.829 C 196.218 246.569,195.836 244.294,196.790 239.400 C 197.670 234.883,197.811 233.435,198.009 226.900 C 198.119 223.270,198.352 218.410,198.526 216.100 C 198.962 210.342,199.096 196.153,198.817 185.253 C 198.524 173.760,198.398 170.920,197.302 151.100 C 196.338 133.647,196.264 109.975,197.094 84.600 C 197.258 79.595,197.486 71.595,197.601 66.822 C 197.717 62.049,197.854 58.075,197.906 57.991 C 198.197 57.520,200.093 57.140,202.800 57.012 C 206.007 56.859,207.055 56.517,208.287 55.219 L 208.875 54.600 212.101 54.600 C 215.932 54.600,216.627 54.436,219.012 52.969 C 219.941 52.399,221.510 51.503,222.500 50.978 L 224.300 50.024 226.600 50.134 C 228.814 50.240,228.949 50.273,230.213 51.009 M136.554 51.619 C 143.833 54.419,146.844 54.922,149.459 53.774 C 151.236 52.994,152.763 53.042,156.085 53.982 C 157.286 54.322,158.477 54.600,158.731 54.600 C 160.624 54.600,161.644 63.043,160.341 67.938 C 159.329 71.742,157.910 74.343,155.808 76.245 C 154.833 77.128,154.472 77.656,153.654 79.403 C 152.467 81.934,150.927 84.501,148.195 88.500 C 146.957 90.312,145.797 92.289,145.267 93.493 C 144.126 96.079,144.115 96.097,138.730 104.300 C 131.633 115.110,127.724 121.927,127.457 123.960 C 127.314 125.052,127.711 125.500,130.519 127.418 C 132.013 128.438,133.204 129.502,135.096 131.508 C 136.503 132.998,138.339 134.773,139.177 135.451 C 141.820 137.591,144.824 140.227,147.100 142.404 C 150.725 145.873,153.599 148.279,160.000 153.203 C 162.874 155.414,167.116 159.422,168.941 161.651 C 169.803 162.704,170.326 163.135,171.313 163.606 C 174.902 165.319,177.264 171.250,176.683 177.088 C 176.567 178.251,176.600 178.371,177.501 180.056 C 178.439 181.811,178.439 181.813,178.302 183.256 C 178.072 185.664,177.840 186.389,176.387 189.244 C 174.353 193.239,173.655 194.982,173.215 197.160 C 172.505 200.678,171.763 202.172,170.124 203.382 C 168.858 204.318,167.986 205.938,166.994 209.200 C 166.209 211.780,164.917 214.853,163.502 217.500 C 162.215 219.909,161.287 222.197,160.875 223.980 C 160.528 225.477,159.860 226.482,158.911 226.935 C 158.341 227.207,158.207 227.432,157.815 228.790 C 157.356 230.380,156.102 233.427,154.112 237.789 C 153.487 239.159,152.632 241.319,152.212 242.589 L 151.448 244.900 150.074 245.565 C 149.318 245.930,147.573 246.891,146.197 247.699 C 141.633 250.379,140.130 250.656,138.619 249.097 C 137.570 248.015,137.099 247.869,135.675 248.188 C 134.177 248.523,133.535 248.332,132.689 247.300 C 131.492 245.839,131.233 245.740,129.865 246.219 C 128.306 246.766,126.662 246.666,126.212 245.998 C 125.569 245.046,124.231 243.877,122.986 243.181 C 122.031 242.646,121.540 242.209,121.079 241.481 C 120.737 240.941,120.220 240.263,119.929 239.973 C 119.236 239.283,119.239 239.258,120.381 235.837 C 121.484 232.533,123.154 228.584,124.582 225.900 C 125.723 223.753,129.178 216.547,130.133 214.320 C 130.505 213.452,131.382 211.787,132.081 210.620 C 134.069 207.303,138.772 197.673,140.356 193.676 C 143.467 185.828,143.238 183.694,138.898 180.032 C 134.864 176.628,130.390 172.560,126.000 168.303 C 116.283 158.881,110.713 153.781,104.979 149.054 C 102.371 146.904,102.232 146.751,101.613 145.356 C 100.589 143.044,99.487 141.488,98.404 140.821 C 97.319 140.154,96.442 138.794,95.925 136.978 C 95.413 135.183,93.892 133.946,91.400 133.300 C 89.026 132.685,88.242 132.085,88.688 131.224 C 88.930 130.754,88.974 130.293,88.876 129.240 C 88.715 127.505,89.080 126.639,90.299 125.868 C 91.285 125.244,91.800 124.489,91.800 123.666 C 91.800 123.351,92.171 122.465,92.624 121.697 C 93.077 120.929,94.024 119.007,94.729 117.427 C 97.530 111.149,101.002 104.820,107.966 93.300 C 111.534 87.398,111.927 86.699,113.250 83.891 C 113.776 82.773,114.541 81.676,115.821 80.200 C 121.325 73.855,123.369 70.348,124.885 64.655 C 126.630 58.103,129.629 52.200,131.800 51.047 C 132.955 50.433,133.707 50.524,136.554 51.619 M227.702 90.237 C 227.635 90.602,227.547 93.780,227.507 97.300 C 227.466 100.926,227.295 105.217,227.114 107.200 C 226.440 114.571,226.512 129.218,227.308 147.000 C 227.473 150.685,227.693 160.539,227.797 168.898 C 227.991 184.535,228.006 184.975,228.537 189.687 C 228.800 192.027,228.810 192.689,228.595 193.824 C 228.278 195.508,228.543 198.600,229.006 198.600 C 229.865 198.600,233.748 193.646,247.190 175.400 C 250.634 170.725,254.638 165.370,256.088 163.500 C 261.838 156.083,264.363 152.480,268.884 145.235 C 273.596 137.683,273.770 137.296,273.069 135.941 C 272.204 134.267,267.596 130.162,263.832 127.712 C 260.357 125.449,259.767 124.886,257.055 121.236 C 254.630 117.973,253.718 116.917,247.614 110.308 C 242.790 105.083,237.980 98.911,236.963 96.636 C 236.928 96.559,236.135 95.899,235.200 95.170 C 234.265 94.440,233.230 93.554,232.900 93.201 C 232.062 92.303,230.309 90.975,228.961 90.216 L 227.823 89.575 227.702 90.237 " stroke="none" fill="#0c142c" fill-rule="evenodd"></path><path id="path2" d="M212.750 54.745 C 213.107 54.789,213.693 54.789,214.050 54.745 C 214.407 54.700,214.115 54.664,213.400 54.664 C 212.685 54.664,212.393 54.700,212.750 54.745 M197.666 63.300 C 197.667 64.070,197.703 64.360,197.746 63.946 C 197.789 63.531,197.789 62.901,197.744 62.546 C 197.700 62.190,197.665 62.530,197.666 63.300 M197.462 72.100 C 197.463 72.760,197.500 73.006,197.545 72.646 C 197.589 72.287,197.589 71.747,197.543 71.446 C 197.497 71.146,197.461 71.440,197.462 72.100 M197.257 79.300 C 197.259 79.850,197.298 80.051,197.344 79.747 C 197.389 79.443,197.388 78.993,197.341 78.747 C 197.293 78.501,197.256 78.750,197.257 79.300 M197.054 85.600 C 197.054 86.095,197.093 86.298,197.141 86.050 C 197.189 85.803,197.189 85.398,197.141 85.150 C 197.093 84.903,197.054 85.105,197.054 85.600 M196.857 91.900 C 196.859 92.450,196.898 92.651,196.944 92.347 C 196.989 92.043,196.988 91.593,196.941 91.347 C 196.893 91.101,196.856 91.350,196.857 91.900 M227.446 93.200 C 227.446 93.585,227.488 93.743,227.538 93.550 C 227.588 93.358,227.588 93.043,227.538 92.850 C 227.488 92.658,227.446 92.815,227.446 93.200 M196.664 99.600 C 196.664 100.315,196.700 100.608,196.745 100.250 C 196.789 99.892,196.789 99.308,196.745 98.950 C 196.700 98.593,196.664 98.885,196.664 99.600 M227.454 100.200 C 227.454 100.695,227.493 100.898,227.541 100.650 C 227.589 100.403,227.589 99.998,227.541 99.750 C 227.493 99.502,227.454 99.705,227.454 100.200 M284.000 104.063 C 284.000 104.097,284.293 104.390,284.650 104.713 L 285.300 105.300 284.713 104.650 C 284.165 104.044,284.000 103.908,284.000 104.063 M196.488 117.600 C 196.488 120.625,196.516 121.863,196.550 120.350 C 196.583 118.838,196.583 116.363,196.550 114.850 C 196.516 113.338,196.488 114.575,196.488 117.600 M226.650 113.300 C 226.653 113.740,226.694 113.896,226.741 113.648 C 226.789 113.399,226.787 113.039,226.737 112.848 C 226.687 112.656,226.648 112.860,226.650 113.300 M298.800 120.500 C 299.173 120.885,299.523 121.200,299.578 121.200 C 299.633 121.200,299.373 120.885,299.000 120.500 C 298.627 120.115,298.277 119.800,298.222 119.800 C 298.167 119.800,298.427 120.115,298.800 120.500 M226.667 129.400 C 226.667 130.225,226.703 130.563,226.746 130.150 C 226.789 129.738,226.789 129.063,226.746 128.650 C 226.703 128.238,226.667 128.575,226.667 129.400 M196.660 134.000 C 196.660 134.605,196.697 134.853,196.743 134.550 C 196.789 134.248,196.789 133.753,196.743 133.450 C 196.697 133.148,196.660 133.395,196.660 134.000 M136.600 133.263 C 136.600 133.297,136.893 133.590,137.250 133.913 L 137.900 134.500 137.313 133.850 C 136.765 133.244,136.600 133.108,136.600 133.263 M226.857 137.500 C 226.859 138.050,226.898 138.251,226.944 137.947 C 226.989 137.643,226.988 137.193,226.941 136.947 C 226.893 136.701,226.856 136.950,226.857 137.500 M196.854 140.800 C 196.854 141.295,196.893 141.498,196.941 141.250 C 196.989 141.003,196.989 140.597,196.941 140.350 C 196.893 140.103,196.854 140.305,196.854 140.800 M227.046 142.800 C 227.046 143.185,227.088 143.343,227.138 143.150 C 227.188 142.958,227.188 142.643,227.138 142.450 C 227.088 142.258,227.046 142.415,227.046 142.800 M197.046 146.200 C 197.046 146.585,197.088 146.743,197.138 146.550 C 197.188 146.358,197.188 146.042,197.138 145.850 C 197.088 145.657,197.046 145.815,197.046 146.200 M227.246 147.600 C 227.246 147.985,227.288 148.143,227.338 147.950 C 227.388 147.758,227.388 147.442,227.338 147.250 C 227.288 147.058,227.246 147.215,227.246 147.600 M227.454 152.800 C 227.454 153.295,227.493 153.498,227.541 153.250 C 227.589 153.003,227.589 152.597,227.541 152.350 C 227.493 152.103,227.454 152.305,227.454 152.800 M227.667 160.000 C 227.667 160.825,227.703 161.163,227.746 160.750 C 227.789 160.338,227.789 159.663,227.746 159.250 C 227.703 158.838,227.667 159.175,227.667 160.000 M117.200 159.863 C 117.200 159.897,117.493 160.190,117.850 160.513 L 118.500 161.100 117.913 160.450 C 117.365 159.844,117.200 159.708,117.200 159.863 M121.992 164.450 C 122.482 164.972,122.910 165.400,122.942 165.400 C 123.092 165.400,122.933 165.220,122.050 164.392 L 121.100 163.500 121.992 164.450 M128.600 170.900 C 128.973 171.285,129.323 171.600,129.378 171.600 C 129.433 171.600,129.173 171.285,128.800 170.900 C 128.427 170.515,128.077 170.200,128.022 170.200 C 127.967 170.200,128.227 170.515,128.600 170.900 M198.446 174.000 C 198.446 174.385,198.488 174.543,198.538 174.350 C 198.588 174.158,198.588 173.843,198.538 173.650 C 198.488 173.458,198.446 173.615,198.446 174.000 M176.657 175.900 C 176.659 176.450,176.698 176.651,176.744 176.347 C 176.789 176.043,176.788 175.593,176.741 175.347 C 176.693 175.101,176.656 175.350,176.657 175.900 M227.870 179.600 C 227.870 180.535,227.904 180.918,227.946 180.450 C 227.989 179.983,227.989 179.218,227.946 178.750 C 227.904 178.283,227.870 178.665,227.870 179.600 M198.654 179.600 C 198.654 180.095,198.693 180.298,198.741 180.050 C 198.789 179.803,198.789 179.398,198.741 179.150 C 198.693 178.903,198.654 179.105,198.654 179.600 M178.254 182.400 C 178.254 182.895,178.293 183.097,178.341 182.850 C 178.389 182.603,178.389 182.197,178.341 181.950 C 178.293 181.703,178.254 181.905,178.254 182.400 M198.867 187.400 C 198.867 188.225,198.903 188.563,198.946 188.150 C 198.989 187.738,198.989 187.063,198.946 186.650 C 198.903 186.238,198.867 186.575,198.867 187.400 M230.887 197.050 L 230.300 197.700 230.950 197.113 C 231.556 196.565,231.692 196.400,231.537 196.400 C 231.503 196.400,231.210 196.692,230.887 197.050 M198.069 225.300 C 198.069 226.180,198.104 226.515,198.147 226.045 C 198.189 225.574,198.188 224.854,198.145 224.445 C 198.102 224.035,198.068 224.420,198.069 225.300 M196.257 243.700 C 196.259 244.250,196.298 244.451,196.344 244.147 C 196.389 243.843,196.388 243.393,196.341 243.147 C 196.293 242.901,196.256 243.150,196.257 243.700 " stroke="none" fill="#666b77" fill-rule="evenodd"></path><path id="path3" d="M288.400 108.663 C 288.400 108.697,288.693 108.990,289.050 109.313 L 289.700 109.900 289.113 109.250 C 288.565 108.644,288.400 108.508,288.400 108.663 M198.050 227.500 C 198.053 227.940,198.094 228.096,198.141 227.848 C 198.189 227.599,198.187 227.239,198.137 227.048 C 198.087 226.856,198.048 227.060,198.050 227.500 " stroke="none" fill="#848c94" fill-rule="evenodd"></path><path id="path4" d="M151.350 53.341 C 151.597 53.389,152.003 53.389,152.250 53.341 C 152.498 53.293,152.295 53.254,151.800 53.254 C 151.305 53.254,151.103 53.293,151.350 53.341 M146.550 54.541 C 146.797 54.589,147.203 54.589,147.450 54.541 C 147.697 54.493,147.495 54.454,147.000 54.454 C 146.505 54.454,146.303 54.493,146.550 54.541 M197.660 66.400 C 197.660 67.005,197.697 67.252,197.743 66.950 C 197.789 66.648,197.789 66.153,197.743 65.850 C 197.697 65.547,197.660 65.795,197.660 66.400 M197.457 74.500 C 197.459 75.050,197.498 75.251,197.544 74.947 C 197.589 74.643,197.588 74.193,197.541 73.947 C 197.493 73.701,197.456 73.950,197.457 74.500 M156.087 75.850 L 155.500 76.500 156.150 75.913 C 156.508 75.590,156.800 75.297,156.800 75.263 C 156.800 75.108,156.635 75.244,156.087 75.850 M197.250 81.500 C 197.253 81.940,197.294 82.096,197.341 81.848 C 197.389 81.599,197.387 81.239,197.337 81.048 C 197.287 80.856,197.248 81.060,197.250 81.500 M197.050 87.500 C 197.053 87.940,197.094 88.096,197.141 87.848 C 197.189 87.599,197.187 87.239,197.137 87.048 C 197.087 86.856,197.048 87.060,197.050 87.500 M232.200 92.463 C 232.200 92.497,232.493 92.790,232.850 93.113 L 233.500 93.700 232.913 93.050 C 232.365 92.444,232.200 92.308,232.200 92.463 M196.854 94.000 C 196.854 94.495,196.893 94.698,196.941 94.450 C 196.989 94.203,196.989 93.798,196.941 93.550 C 196.893 93.303,196.854 93.505,196.854 94.000 M227.478 96.500 C 227.478 97.930,227.510 98.489,227.548 97.742 C 227.587 96.995,227.587 95.825,227.548 95.142 C 227.509 94.459,227.477 95.070,227.478 96.500 M196.667 103.000 C 196.667 103.825,196.703 104.163,196.746 103.750 C 196.789 103.338,196.789 102.663,196.746 102.250 C 196.703 101.838,196.667 102.175,196.667 103.000 M282.400 102.463 C 282.400 102.497,282.693 102.790,283.050 103.113 L 283.700 103.700 283.113 103.050 C 282.565 102.444,282.400 102.308,282.400 102.463 M259.200 124.063 C 259.200 124.097,259.493 124.390,259.850 124.713 L 260.500 125.300 259.913 124.650 C 259.365 124.044,259.200 123.908,259.200 124.063 M196.666 130.900 C 196.667 131.670,196.703 131.960,196.746 131.546 C 196.789 131.131,196.789 130.501,196.744 130.146 C 196.700 129.790,196.665 130.130,196.666 130.900 M226.657 132.700 C 226.659 133.250,226.698 133.451,226.744 133.147 C 226.789 132.843,226.788 132.393,226.741 132.147 C 226.693 131.901,226.656 132.150,226.657 132.700 M196.850 138.900 C 196.853 139.340,196.894 139.496,196.941 139.248 C 196.989 138.999,196.987 138.639,196.937 138.448 C 196.887 138.256,196.848 138.460,196.850 138.900 M226.846 139.400 C 226.846 139.785,226.888 139.942,226.938 139.750 C 226.988 139.558,226.988 139.243,226.938 139.050 C 226.888 138.858,226.846 139.015,226.846 139.400 M146.900 142.400 C 147.330 142.840,147.726 143.200,147.781 143.200 C 147.836 143.200,147.530 142.840,147.100 142.400 C 146.670 141.960,146.274 141.600,146.219 141.600 C 146.164 141.600,146.470 141.960,146.900 142.400 M307.287 144.050 L 306.700 144.700 307.350 144.113 C 307.956 143.565,308.092 143.400,307.937 143.400 C 307.903 143.400,307.610 143.692,307.287 144.050 M227.046 144.400 C 227.046 144.785,227.088 144.942,227.138 144.750 C 227.188 144.558,227.188 144.243,227.138 144.050 C 227.088 143.858,227.046 144.015,227.046 144.400 M197.046 144.600 C 197.046 144.985,197.088 145.143,197.138 144.950 C 197.188 144.758,197.188 144.442,197.138 144.250 C 197.088 144.058,197.046 144.215,197.046 144.600 M227.246 149.200 C 227.246 149.585,227.288 149.743,227.338 149.550 C 227.388 149.358,227.388 149.042,227.338 148.850 C 227.288 148.657,227.246 148.815,227.246 149.200 M227.454 154.800 C 227.454 155.295,227.493 155.498,227.541 155.250 C 227.589 155.003,227.589 154.597,227.541 154.350 C 227.493 154.103,227.454 154.305,227.454 154.800 M227.667 163.600 C 227.667 164.425,227.703 164.763,227.746 164.350 C 227.789 163.938,227.789 163.263,227.746 162.850 C 227.703 162.438,227.667 162.775,227.667 163.600 M126.700 169.000 C 127.130 169.440,127.526 169.800,127.581 169.800 C 127.636 169.800,127.330 169.440,126.900 169.000 C 126.470 168.560,126.074 168.200,126.019 168.200 C 125.964 168.200,126.270 168.560,126.700 169.000 M198.446 172.400 C 198.446 172.785,198.488 172.942,198.538 172.750 C 198.588 172.558,198.588 172.243,198.538 172.050 C 198.488 171.858,198.446 172.015,198.446 172.400 M198.650 177.700 C 198.653 178.140,198.694 178.296,198.741 178.048 C 198.789 177.799,198.787 177.439,198.737 177.248 C 198.687 177.056,198.648 177.260,198.650 177.700 M227.846 182.800 C 227.846 183.185,227.888 183.343,227.938 183.150 C 227.988 182.958,227.988 182.643,227.938 182.450 C 227.888 182.258,227.846 182.415,227.846 182.800 M198.857 184.500 C 198.859 185.050,198.898 185.251,198.944 184.947 C 198.989 184.643,198.988 184.193,198.941 183.947 C 198.893 183.701,198.856 183.950,198.857 184.500 M142.457 186.500 C 142.459 187.050,142.498 187.251,142.544 186.947 C 142.589 186.643,142.588 186.193,142.541 185.947 C 142.493 185.701,142.456 185.950,142.457 186.500 M199.088 200.300 C 199.088 203.490,199.116 204.767,199.150 203.138 C 199.183 201.509,199.183 198.899,199.149 197.338 C 199.116 195.777,199.088 197.110,199.088 200.300 M228.246 195.400 C 228.246 195.785,228.288 195.942,228.338 195.750 C 228.388 195.558,228.388 195.243,228.338 195.050 C 228.288 194.858,228.246 195.015,228.246 195.400 M198.060 229.200 C 198.060 229.805,198.097 230.053,198.143 229.750 C 198.189 229.447,198.189 228.953,198.143 228.650 C 198.097 228.347,198.060 228.595,198.060 229.200 M234.593 242.150 L 233.500 243.300 234.650 242.207 C 235.282 241.606,235.800 241.088,235.800 241.057 C 235.800 240.908,235.609 241.082,234.593 242.150 M231.887 244.650 L 231.300 245.300 231.950 244.713 C 232.556 244.165,232.692 244.000,232.537 244.000 C 232.503 244.000,232.210 244.293,231.887 244.650 M127.650 246.538 C 127.843 246.588,128.157 246.588,128.350 246.538 C 128.542 246.488,128.385 246.446,128.000 246.446 C 127.615 246.446,127.458 246.488,127.650 246.538 " stroke="none" fill="#8c8c94" fill-rule="evenodd"></path></g></svg>