<svg xmlns="http://www.w3.org/2000/svg" width="2000" height="1500" viewBox="0 0 2000 1500" version="1.1"><path d="M 1114 254.292 C 1109.325 256.722, 1101.472 261.264, 1096.549 264.386 C 1083.569 272.615, 1079.777 273.553, 1060.734 273.244 L 1044.969 272.988 1040.734 276.860 C 1033.422 283.547, 1031.104 284.285, 1015 285.053 C 1003.682 285.593, 999.238 286.228, 994.750 287.945 L 989 290.144 988.998 300.322 C 988.995 315.441, 987.172 382.469, 985.403 432.500 C 983.269 492.877, 982.444 627.133, 983.898 677.500 C 985.188 722.177, 986.147 744.387, 988.990 795.500 C 995.450 911.625, 996.947 1015.035, 993.073 1077.500 C 992.016 1094.550, 990.871 1120.200, 990.528 1134.500 C 989.876 1161.758, 988.567 1175.097, 984.470 1196.257 C 981.333 1212.457, 981.173 1224.459, 984.020 1230.040 C 985.798 1233.524, 986.465 1234, 989.570 1234 C 994.431 1234, 997.997 1236.070, 1002.407 1241.452 C 1009.256 1249.811, 1014.412 1250.865, 1023.959 1245.861 C 1029.508 1242.952, 1030.959 1242.667, 1043.724 1241.974 C 1057.756 1241.213, 1059.606 1240.774, 1074.500 1234.668 C 1078.095 1233.194, 1083.707 1231.933, 1088.500 1231.522 C 1092.900 1231.146, 1102.992 1229.732, 1110.926 1228.382 C 1126.993 1225.648, 1128.780 1225.844, 1134.632 1230.982 C 1141.307 1236.842, 1147.217 1234.741, 1162.429 1221.100 C 1185.146 1200.730, 1208.688 1172.348, 1227.884 1142.189 C 1239.112 1124.547, 1247.159 1113.649, 1266.050 1090.500 C 1274.129 1080.600, 1284.735 1067.047, 1289.620 1060.382 C 1298.069 1048.853, 1313.709 1028.259, 1338.693 995.768 C 1344.923 987.665, 1352.543 976.865, 1355.625 971.768 C 1363.527 958.700, 1368.535 951.697, 1380.258 937.324 C 1421.274 887.034, 1424.870 882.057, 1449.476 841.513 C 1468.227 810.618, 1470.615 807.372, 1487.015 790.500 C 1504.301 772.716, 1509.854 764.211, 1510.394 754.692 C 1510.752 748.376, 1513.848 742.014, 1518.101 738.853 C 1519.842 737.559, 1527.379 730.425, 1534.851 723 L 1548.435 709.500 1549.129 699.663 C 1549.765 690.648, 1550.134 689.323, 1553.548 683.791 C 1558.468 675.820, 1559.019 670.904, 1555.783 663.837 C 1550.035 651.282, 1526.146 625.807, 1509.259 614.222 C 1495.206 604.583, 1491.586 600.861, 1484.381 588.645 C 1476.171 574.722, 1471.603 569.358, 1457.906 557.552 C 1435.107 537.901, 1381.142 479.424, 1348.501 439 C 1316.711 399.630, 1285.023 362.843, 1270.085 347.966 C 1253.441 331.389, 1245.525 324.865, 1207 295.973 C 1147.642 251.457, 1146.629 250.811, 1136.733 251.183 C 1133.305 251.312, 1128.700 251.070, 1126.500 250.646 C 1122.944 249.960, 1121.558 250.364, 1114 254.292 M 656.453 257.176 C 646.012 266.343, 633.199 292.370, 625.978 319.082 C 616.889 352.702, 609.019 366.535, 579.087 401.500 C 571.682 410.150, 568.744 414.529, 565.334 422 C 560.037 433.604, 561.496 431.031, 538.898 468.586 C 502.888 528.431, 486.941 557.552, 473.777 587.500 C 470.151 595.750, 465.617 605.092, 463.701 608.259 C 461.786 611.427, 459.906 615.686, 459.524 617.725 C 458.454 623.427, 456.313 626.778, 451.997 629.502 C 445.603 633.538, 444.466 636.104, 444.717 645.936 C 444.872 652.022, 444.518 655.087, 443.474 656.680 C 442.109 658.763, 442.226 659.070, 445.257 661.373 C 447.041 662.729, 452.423 664.940, 457.218 666.287 C 463.355 668.012, 467.438 669.882, 471.008 672.604 C 477.142 677.282, 478.244 678.876, 480.349 686.124 C 482.492 693.501, 487.454 700.749, 492.815 704.334 C 497.762 707.642, 504.883 717.822, 507.970 726 C 510.644 733.083, 510.796 733.245, 528.502 747.982 C 558.013 772.541, 578.835 791.558, 620.037 831.580 C 649.072 859.783, 665.407 874.852, 685.002 891.512 C 704.878 908.411, 706.221 909.761, 709.134 915.771 C 712.247 922.195, 712.892 935.848, 710.514 944.980 C 707.028 958.365, 694.131 988.377, 679.276 1017.675 C 670.861 1034.271, 662.055 1050.965, 659.708 1054.772 C 657.360 1058.580, 652.322 1068.626, 648.510 1077.097 C 644.699 1085.569, 635.400 1104.963, 627.846 1120.195 C 613.321 1149.480, 605.212 1168.619, 599.874 1186.209 L 596.625 1196.917 599.332 1199.047 C 600.822 1200.218, 602.757 1202.599, 603.634 1204.338 C 606.179 1209.386, 609.926 1212.806, 618.770 1218.156 C 625.043 1221.950, 627.518 1224.096, 629.020 1227.039 C 630.568 1230.074, 631.900 1231.189, 635.132 1232.158 C 639.222 1233.383, 641.520 1233.037, 654.332 1229.263 C 655.643 1228.877, 657.700 1230.348, 661.555 1234.424 C 667.845 1241.076, 670.551 1242.103, 678.149 1240.726 C 685.627 1239.371, 688.513 1240.283, 693.840 1245.686 C 698.311 1250.221, 698.369 1250.244, 703.918 1249.732 C 710.854 1249.092, 717.236 1246.287, 733.053 1236.928 C 739.866 1232.896, 747.928 1228.592, 750.970 1227.362 C 755.483 1225.537, 756.711 1224.516, 757.647 1221.813 C 763.937 1203.638, 767.422 1194.887, 774.648 1179.118 C 779.281 1169.007, 784.926 1155.234, 787.193 1148.510 C 790.977 1137.287, 791.600 1136.132, 794.797 1134.410 C 799.221 1132.027, 802.445 1127.004, 804.044 1120 C 805.982 1111.511, 809.033 1104.151, 819.470 1082.795 C 825.731 1069.984, 830.781 1057.915, 833.906 1048.295 C 840.159 1029.052, 843.647 1022.222, 849.717 1017.344 C 852.348 1015.230, 855.089 1012.825, 855.809 1012 C 858.825 1008.543, 863.137 997.769, 865.035 988.950 C 868.139 974.521, 869.472 970.993, 879.598 950.412 C 889.369 930.554, 891 925.383, 891 914.266 C 891 908.722, 890.444 906.719, 887.086 900.153 L 883.172 892.500 882.693 876.500 C 882.179 859.338, 879.760 846.901, 874.913 836.493 C 871.683 829.555, 862.800 820.915, 856 818.098 C 852.160 816.507, 849.515 814.528, 847.236 811.543 C 836.438 797.400, 815.853 778.215, 792.500 760.533 C 769.630 743.215, 757.821 733.154, 730.328 707.557 C 723.273 700.988, 710.750 690.038, 702.500 683.223 C 694.137 676.315, 682.125 665.060, 675.352 657.786 C 665.781 647.506, 660.691 643.005, 651.352 636.561 C 643.398 631.072, 638.882 627.247, 637.621 624.931 L 635.741 621.480 638.922 613.490 C 645.590 596.738, 660.693 571.246, 694.231 520.133 C 717.499 484.671, 721.994 477.098, 727.390 464.266 C 728.832 460.837, 734.906 450.891, 740.888 442.164 C 754.571 422.199, 760.348 412.582, 767.627 397.652 C 772.132 388.410, 774.351 385.027, 777.716 382.269 C 788.208 373.672, 796.109 359.465, 801.050 340.313 C 806.591 318.832, 806.189 299.934, 799.814 282.305 L 796.851 274.111 791.175 272.971 C 788.054 272.344, 781.675 270.672, 777 269.256 C 764.618 265.505, 754.562 265.548, 746.251 269.386 C 740.390 272.093, 739.426 272.239, 730.751 271.732 C 720.058 271.107, 708.050 267.841, 685.940 259.543 C 667.568 252.648, 662.109 252.209, 656.453 257.176 M 1138.458 449.750 C 1138.043 450.712, 1137.606 464.775, 1137.487 481 C 1137.350 499.859, 1136.592 518.256, 1135.386 532 C 1132.601 563.753, 1132.841 659.027, 1135.886 730 C 1137.140 759.232, 1138.522 813.281, 1139.081 855 C 1139.624 895.425, 1140.292 930.525, 1140.566 933 C 1140.841 935.475, 1141.758 943.288, 1142.605 950.362 C 1143.854 960.789, 1143.917 964.176, 1142.940 968.249 C 1141.681 973.497, 1142.121 987.715, 1143.666 991.721 C 1144.503 993.891, 1144.654 993.839, 1150.163 989.468 C 1156.114 984.748, 1178.258 955.789, 1238.843 873.500 C 1255.040 851.500, 1275.796 823.825, 1284.967 812 C 1303.675 787.877, 1312.537 775.678, 1325.650 756 C 1340.240 734.106, 1364.216 694.889, 1366.219 689.642 C 1368.063 684.812, 1368.061 684.758, 1365.854 680.198 C 1361.614 671.440, 1336.886 649.323, 1318.066 637.457 C 1303.261 628.122, 1299.067 624.283, 1289.303 611.130 C 1284.554 604.734, 1279.143 597.475, 1277.277 595 C 1273.273 589.688, 1258.416 573.084, 1236.566 549.500 C 1213.795 524.924, 1201.189 508.975, 1189.748 490.268 C 1185.838 483.875, 1183.237 480.940, 1178.106 477.129 C 1174.473 474.429, 1167.474 468.539, 1162.553 464.039 C 1155.323 457.428, 1141.880 448, 1139.683 448 C 1139.425 448, 1138.874 448.788, 1138.458 449.750" stroke="none" fill="#fbfbfb" fill-rule="evenodd"/><path d="M 0 750 L 0 1500.001 1000.250 1499.750 L 2000.500 1499.500 2000.751 749.750 L 2001.001 0 1000.501 0 L 0 0 0 750 M 0.497 750.500 C 0.497 1163, 0.611 1331.600, 0.750 1125.168 C 0.889 918.735, 0.889 581.235, 0.750 375.168 C 0.611 169.100, 0.497 338, 0.497 750.500 M 1114 254.292 C 1109.325 256.722, 1101.472 261.264, 1096.549 264.386 C 1083.569 272.615, 1079.777 273.553, 1060.734 273.244 L 1044.969 272.988 1040.734 276.860 C 1033.422 283.547, 1031.104 284.285, 1015 285.053 C 1003.682 285.593, 999.238 286.228, 994.750 287.945 L 989 290.144 988.998 300.322 C 988.995 315.441, 987.172 382.469, 985.403 432.500 C 983.269 492.877, 982.444 627.133, 983.898 677.500 C 985.188 722.177, 986.147 744.387, 988.990 795.500 C 995.450 911.625, 996.947 1015.035, 993.073 1077.500 C 992.016 1094.550, 990.871 1120.200, 990.528 1134.500 C 989.876 1161.758, 988.567 1175.097, 984.470 1196.257 C 981.333 1212.457, 981.173 1224.459, 984.020 1230.040 C 985.798 1233.524, 986.465 1234, 989.570 1234 C 994.431 1234, 997.997 1236.070, 1002.407 1241.452 C 1009.256 1249.811, 1014.412 1250.865, 1023.959 1245.861 C 1029.508 1242.952, 1030.959 1242.667, 1043.724 1241.974 C 1057.756 1241.213, 1059.606 1240.774, 1074.500 1234.668 C 1078.095 1233.194, 1083.707 1231.933, 1088.500 1231.522 C 1092.900 1231.146, 1102.992 1229.732, 1110.926 1228.382 C 1126.993 1225.648, 1128.780 1225.844, 1134.632 1230.982 C 1141.307 1236.842, 1147.217 1234.741, 1162.429 1221.100 C 1185.146 1200.730, 1208.688 1172.348, 1227.884 1142.189 C 1239.112 1124.547, 1247.159 1113.649, 1266.050 1090.500 C 1274.129 1080.600, 1284.735 1067.047, 1289.620 1060.382 C 1298.069 1048.853, 1313.709 1028.259, 1338.693 995.768 C 1344.923 987.665, 1352.543 976.865, 1355.625 971.768 C 1363.527 958.700, 1368.535 951.697, 1380.258 937.324 C 1421.274 887.034, 1424.870 882.057, 1449.476 841.513 C 1468.227 810.618, 1470.615 807.372, 1487.015 790.500 C 1504.301 772.716, 1509.854 764.211, 1510.394 754.692 C 1510.752 748.376, 1513.848 742.014, 1518.101 738.853 C 1519.842 737.559, 1527.379 730.425, 1534.851 723 L 1548.435 709.500 1549.129 699.663 C 1549.765 690.648, 1550.134 689.323, 1553.548 683.791 C 1558.468 675.820, 1559.019 670.904, 1555.783 663.837 C 1550.035 651.282, 1526.146 625.807, 1509.259 614.222 C 1495.206 604.583, 1491.586 600.861, 1484.381 588.645 C 1476.171 574.722, 1471.603 569.358, 1457.906 557.552 C 1435.107 537.901, 1381.142 479.424, 1348.501 439 C 1316.711 399.630, 1285.023 362.843, 1270.085 347.966 C 1253.441 331.389, 1245.525 324.865, 1207 295.973 C 1147.642 251.457, 1146.629 250.811, 1136.733 251.183 C 1133.305 251.312, 1128.700 251.070, 1126.500 250.646 C 1122.944 249.960, 1121.558 250.364, 1114 254.292 M 656.453 257.176 C 646.012 266.343, 633.199 292.370, 625.978 319.082 C 616.889 352.702, 609.019 366.535, 579.087 401.500 C 571.682 410.150, 568.744 414.529, 565.334 422 C 560.037 433.604, 561.496 431.031, 538.898 468.586 C 502.888 528.431, 486.941 557.552, 473.777 587.500 C 470.151 595.750, 465.617 605.092, 463.701 608.259 C 461.786 611.427, 459.906 615.686, 459.524 617.725 C 458.454 623.427, 456.313 626.778, 451.997 629.502 C 445.603 633.538, 444.466 636.104, 444.717 645.936 C 444.872 652.022, 444.518 655.087, 443.474 656.680 C 442.109 658.763, 442.226 659.070, 445.257 661.373 C 447.041 662.729, 452.423 664.940, 457.218 666.287 C 463.355 668.012, 467.438 669.882, 471.008 672.604 C 477.142 677.282, 478.244 678.876, 480.349 686.124 C 482.492 693.501, 487.454 700.749, 492.815 704.334 C 497.762 707.642, 504.883 717.822, 507.970 726 C 510.644 733.083, 510.796 733.245, 528.502 747.982 C 558.013 772.541, 578.835 791.558, 620.037 831.580 C 649.072 859.783, 665.407 874.852, 685.002 891.512 C 704.878 908.411, 706.221 909.761, 709.134 915.771 C 712.247 922.195, 712.892 935.848, 710.514 944.980 C 707.028 958.365, 694.131 988.377, 679.276 1017.675 C 670.861 1034.271, 662.055 1050.965, 659.708 1054.772 C 657.360 1058.580, 652.322 1068.626, 648.510 1077.097 C 644.699 1085.569, 635.400 1104.963, 627.846 1120.195 C 613.321 1149.480, 605.212 1168.619, 599.874 1186.209 L 596.625 1196.917 599.332 1199.047 C 600.822 1200.218, 602.757 1202.599, 603.634 1204.338 C 606.179 1209.386, 609.926 1212.806, 618.770 1218.156 C 625.043 1221.950, 627.518 1224.096, 629.020 1227.039 C 630.568 1230.074, 631.900 1231.189, 635.132 1232.158 C 639.222 1233.383, 641.520 1233.037, 654.332 1229.263 C 655.643 1228.877, 657.700 1230.348, 661.555 1234.424 C 667.845 1241.076, 670.551 1242.103, 678.149 1240.726 C 685.627 1239.371, 688.513 1240.283, 693.840 1245.686 C 698.311 1250.221, 698.369 1250.244, 703.918 1249.732 C 710.854 1249.092, 717.236 1246.287, 733.053 1236.928 C 739.866 1232.896, 747.928 1228.592, 750.970 1227.362 C 755.483 1225.537, 756.711 1224.516, 757.647 1221.813 C 763.937 1203.638, 767.422 1194.887, 774.648 1179.118 C 779.281 1169.007, 784.926 1155.234, 787.193 1148.510 C 790.977 1137.287, 791.600 1136.132, 794.797 1134.410 C 799.221 1132.027, 802.445 1127.004, 804.044 1120 C 805.982 1111.511, 809.033 1104.151, 819.470 1082.795 C 825.731 1069.984, 830.781 1057.915, 833.906 1048.295 C 840.159 1029.052, 843.647 1022.222, 849.717 1017.344 C 852.348 1015.230, 855.089 1012.825, 855.809 1012 C 858.825 1008.543, 863.137 997.769, 865.035 988.950 C 868.139 974.521, 869.472 970.993, 879.598 950.412 C 889.369 930.554, 891 925.383, 891 914.266 C 891 908.722, 890.444 906.719, 887.086 900.153 L 883.172 892.500 882.693 876.500 C 882.179 859.338, 879.760 846.901, 874.913 836.493 C 871.683 829.555, 862.800 820.915, 856 818.098 C 852.160 816.507, 849.515 814.528, 847.236 811.543 C 836.438 797.400, 815.853 778.215, 792.500 760.533 C 769.630 743.215, 757.821 733.154, 730.328 707.557 C 723.273 700.988, 710.750 690.038, 702.500 683.223 C 694.137 676.315, 682.125 665.060, 675.352 657.786 C 665.781 647.506, 660.691 643.005, 651.352 636.561 C 643.398 631.072, 638.882 627.247, 637.621 624.931 L 635.741 621.480 638.922 613.490 C 645.590 596.738, 660.693 571.246, 694.231 520.133 C 717.499 484.671, 721.994 477.098, 727.390 464.266 C 728.832 460.837, 734.906 450.891, 740.888 442.164 C 754.571 422.199, 760.348 412.582, 767.627 397.652 C 772.132 388.410, 774.351 385.027, 777.716 382.269 C 788.208 373.672, 796.109 359.465, 801.050 340.313 C 806.591 318.832, 806.189 299.934, 799.814 282.305 L 796.851 274.111 791.175 272.971 C 788.054 272.344, 781.675 270.672, 777 269.256 C 764.618 265.505, 754.562 265.548, 746.251 269.386 C 740.390 272.093, 739.426 272.239, 730.751 271.732 C 720.058 271.107, 708.050 267.841, 685.940 259.543 C 667.568 252.648, 662.109 252.209, 656.453 257.176 M 1138.458 449.750 C 1138.043 450.712, 1137.606 464.775, 1137.487 481 C 1137.350 499.859, 1136.592 518.256, 1135.386 532 C 1132.601 563.753, 1132.841 659.027, 1135.886 730 C 1137.140 759.232, 1138.522 813.281, 1139.081 855 C 1139.624 895.425, 1140.292 930.525, 1140.566 933 C 1140.841 935.475, 1141.758 943.288, 1142.605 950.362 C 1143.854 960.789, 1143.917 964.176, 1142.940 968.249 C 1141.681 973.497, 1142.121 987.715, 1143.666 991.721 C 1144.503 993.891, 1144.654 993.839, 1150.163 989.468 C 1156.114 984.748, 1178.258 955.789, 1238.843 873.500 C 1255.040 851.500, 1275.796 823.825, 1284.967 812 C 1303.675 787.877, 1312.537 775.678, 1325.650 756 C 1340.240 734.106, 1364.216 694.889, 1366.219 689.642 C 1368.063 684.812, 1368.061 684.758, 1365.854 680.198 C 1361.614 671.440, 1336.886 649.323, 1318.066 637.457 C 1303.261 628.122, 1299.067 624.283, 1289.303 611.130 C 1284.554 604.734, 1279.143 597.475, 1277.277 595 C 1273.273 589.688, 1258.416 573.084, 1236.566 549.500 C 1213.795 524.924, 1201.189 508.975, 1189.748 490.268 C 1185.838 483.875, 1183.237 480.940, 1178.106 477.129 C 1174.473 474.429, 1167.474 468.539, 1162.553 464.039 C 1155.323 457.428, 1141.880 448, 1139.683 448 C 1139.425 448, 1138.874 448.788, 1138.458 449.750" stroke="none" fill="#0c142c" fill-rule="evenodd"/></svg>